<svg id="_1" data-name="1" xmlns="http://www.w3.org/2000/svg" width="610" height="871.001" viewBox="0 0 610 871.001">
  <rect id="Rectangle_2" data-name="Rectangle 2" width="610" height="871" fill="#279f00"/>
  <path id="Subtraction_1" data-name="Subtraction 1" d="M412.256,965H98V801.5a61.263,61.263,0,0,0,17.471-21.014,60.667,60.667,0,0,0,4.831-13.133,61.5,61.5,0,0,0,0-28.709A60.8,60.8,0,0,0,107.9,714a61.446,61.446,0,0,0-9.9-9.5V584a73,73,0,1,0,0-118V342.713a62.005,62.005,0,0,0,0-123.427V94h82.892a81.721,81.721,0,0,0-19.639,26.841,81.069,81.069,0,0,0-5.373,16.176,81.5,81.5,0,1,0,159.241,0,81.114,81.114,0,0,0-13.843-30.648A82.114,82.114,0,0,0,290.108,94H394.065a73.032,73.032,0,0,0,139.869,0H643.892a81.72,81.72,0,0,0-19.639,26.841,81.057,81.057,0,0,0-5.373,16.176A81.563,81.563,0,0,0,708,235.452V420l-.5,0a81.5,81.5,0,0,0,0,163l.5,0V877a41,41,0,0,0,0,82v6H574.745c.169-2.146.255-4.333.255-6.5a81.5,81.5,0,1,0-163,0c0,2.162.086,4.349.255,6.5ZM246,739A100,100,0,1,0,346,839,100.113,100.113,0,0,0,246,739Zm186,34a41,41,0,1,0,41,41A41.046,41.046,0,0,0,432,773Zm174-87a73,73,0,1,0,73,73A73.083,73.083,0,0,0,606,686ZM317,617a41,41,0,1,0,41,41A41.046,41.046,0,0,0,317,617ZM478.5,386A122.5,122.5,0,1,0,601,508.5,122.639,122.639,0,0,0,478.5,386ZM267,374a39,39,0,1,0,39,39A39.044,39.044,0,0,0,267,374ZM606,267a61,61,0,1,0,61,61A61.068,61.068,0,0,0,606,267ZM355.5,236A56.5,56.5,0,1,0,412,292.5,56.564,56.564,0,0,0,355.5,236ZM483,219a39,39,0,1,0,39,39A39.045,39.045,0,0,0,483,219Z" transform="translate(-98 -94)" fill="#00ab11"/>
</svg>
